<?xml version="1.0" encoding="UTF-8" standalone="no"?>
<!DOCTYPE svg PUBLIC "-//W3C//DTD SVG 1.1//EN" "http://www.w3.org/Graphics/SVG/1.1/DTD/svg11.dtd">
<svg width="100%" height="100%" viewBox="0 0 84 84" version="1.1" xmlns="http://www.w3.org/2000/svg" xmlns:xlink="http://www.w3.org/1999/xlink" xml:space="preserve" xmlns:serif="http://www.serif.com/" style="fill-rule:evenodd;clip-rule:evenodd;stroke-linecap:round;stroke-linejoin:round;stroke-miterlimit:1.5;">
    <g id="hytale_icon" transform="matrix(0.65625,0,0,0.65625,0,0)">
        <rect x="0" y="0" width="128" height="128" style="fill:none;"/>
        <g transform="matrix(0.858484,0,0,0.858484,8.627767,8.602167)">
            <path d="M29,21C75.906,12.229 100,22 100,22L98,32L94,38L91,39L94,40L94,101L68,121L62,119L62,104L61,105L35,88L34,41L37,40L34,39L30,31L29,21ZM36,27L36,29L41,37L41,85L57,94L59,94L59,62L69,62L70,110L87,97L87,38L92,29L92,27L69,24L69,50L70,51L59,51L59,24L36,27Z" style="fill:white;stroke:white;stroke-width:1.78px;"/>
        </g>
    </g>
</svg>
