<?xml version="1.0" encoding="UTF-8" standalone="no"?>
<!DOCTYPE svg PUBLIC "-//W3C//DTD SVG 1.1//EN" "http://www.w3.org/Graphics/SVG/1.1/DTD/svg11.dtd">
<svg width="100%" height="100%" viewBox="0 0 84 84" version="1.1" xmlns="http://www.w3.org/2000/svg" xmlns:xlink="http://www.w3.org/1999/xlink" xml:space="preserve" xmlns:serif="http://www.serif.com/" style="fill-rule:evenodd;clip-rule:evenodd;stroke-linejoin:round;stroke-miterlimit:2;">
    <g transform="matrix(1,0,0,1,-188,0)">
        <g id="version_icon" transform="matrix(0.65625,0,0,0.65625,71.1875,0)">
            <rect x="178" y="0" width="128" height="128" style="fill:none;"/>
            <g transform="matrix(1.296505,0,0,1.296505,-56.212627,10.574185)">
                <path d="M204.8,63.812C204.828,63.806 204.856,63.801 204.885,63.796C205.879,63.628 206.876,64.12 207.348,65.009L207.483,65.115L208.026,65.751L208.427,66.527L208.62,67.4L208.576,68.272L208.329,69.052L207.942,69.702L207.467,70.223L206.34,70.938L205.699,71.144L205.009,71.24L204.278,71.206L203.528,71.017L202.804,70.658L202.158,70.139C201.759,69.74 201.488,69.368 201.303,69.037L200.928,68.078L200.856,67.132L201.074,66.204L201.629,65.31L202.554,64.553C203.272,64.13 204.473,63.876 204.8,63.812Z" style="fill:white;"/>
            </g>
            <g transform="matrix(1.296505,0,0,1.296505,-56.212627,10.574185)">
                <path d="M208.148,37.043C206.894,37.375 205.606,36.627 205.273,35.373C204.941,34.119 205.689,32.831 206.943,32.499C213.759,30.691 217.862,29.484 221.321,27.043C224.785,24.598 227.58,20.934 231.912,14.4C232.507,13.503 233.634,13.125 234.65,13.481C235.665,13.838 236.309,14.838 236.212,15.91C235.849,19.937 231.327,41.976 222.748,69.026C222.356,70.262 221.034,70.948 219.797,70.556C218.56,70.164 217.875,68.841 218.267,67.605C223.749,50.318 227.564,35.122 229.656,25.535C227.751,27.817 225.974,29.513 224.032,30.884C220.2,33.588 215.699,35.04 208.148,37.043Z" style="fill:white;"/>
            </g>
            <g transform="matrix(1.296505,0,0,1.296505,-56.212627,10.574185)">
                <path d="M238.983,36.352C237.81,36.905 236.408,36.401 235.855,35.228C235.301,34.054 235.805,32.653 236.978,32.099C246.147,27.777 248.929,25.974 255.043,18.838C255.702,18.068 256.779,17.808 257.717,18.191C258.655,18.574 259.241,19.514 259.173,20.525C258.878,24.907 258.953,24.942 248.031,69.425C247.722,70.685 246.448,71.457 245.188,71.147C243.928,70.838 243.156,69.564 243.466,68.304C249.463,43.88 252.107,33.08 253.322,27.557C249.53,31.099 245.963,33.061 238.983,36.352Z" style="fill:white;"/>
            </g>
        </g>
    </g>
</svg>
