<?xml version="1.0" encoding="UTF-8" standalone="no"?>
<!DOCTYPE svg PUBLIC "-//W3C//DTD SVG 1.1//EN" "http://www.w3.org/Graphics/SVG/1.1/DTD/svg11.dtd">
<svg width="100%" height="100%" viewBox="0 0 512 512" version="1.1" xmlns="http://www.w3.org/2000/svg" xmlns:xlink="http://www.w3.org/1999/xlink" xml:space="preserve" xmlns:serif="http://www.serif.com/" style="fill-rule:evenodd;clip-rule:evenodd;stroke-linejoin:round;stroke-miterlimit:2;">
    <rect id="Artboard1" x="0" y="0" width="512" height="512" style="fill:none;"/>
    <g id="Artboard11" serif:id="Artboard1">
        <g transform="matrix(1,0,0,1,0,58)">
            <path d="M16.707,407.025C15.134,405.475 15.116,402.941 16.665,401.368C18.215,399.796 20.749,399.777 22.322,401.327C24.194,403.172 49.204,436.946 107.153,440.661C137.175,442.586 162.208,434.701 180.459,417.7C208.235,391.828 220.197,345.312 211.279,281.493C206.184,245.034 187.356,160.675 217.656,97.625C250.357,29.58 322.439,20.57 375.788,15.535C377.986,15.328 379.939,16.944 380.146,19.142C380.354,21.34 378.738,23.292 376.54,23.5C325.527,28.314 256.136,36.026 224.867,101.09C195.323,162.566 214.235,244.838 219.202,280.385C228.589,347.557 215.147,396.323 185.912,423.554C166.157,441.956 139.136,450.728 106.642,448.645C45.227,444.707 18.691,408.98 16.707,407.025Z" style="fill:white;"/>
        </g>
        <g transform="matrix(0.904403,-0.242334,0.393713,1.46936,12.1942,51.479)">
            <path d="M377.195,73.686C379.335,74.296 380.268,75.86 379.277,77.177C378.287,78.494 375.746,79.068 373.606,78.459C327.664,65.371 327.778,66.068 282.16,51.603C280.064,50.939 279.239,49.352 280.319,48.062C281.399,46.772 283.977,46.264 286.073,46.928C331.529,61.341 331.417,60.644 377.195,73.686Z" style="fill:white;"/>
        </g>
        <g transform="matrix(0.881616,-0.236228,-0.419371,-1.56512,82.9759,281.422)">
            <path d="M373.423,78.275C375.581,78.89 378.22,78.402 379.311,77.186C380.403,75.971 379.537,74.484 377.378,73.869C331.605,60.829 331.717,61.526 286.266,47.115C284.159,46.446 281.484,46.868 280.298,48.055C279.111,49.242 279.859,50.749 281.967,51.417C327.59,65.883 327.476,65.186 373.423,78.275Z" style="fill:white;"/>
        </g>
    </g>
</svg>
